<?xml version="1.0" encoding="utf-8"?>
<!-- Generator: Adobe Illustrator 23.1.1, SVG Export Plug-In . SVG Version: 6.00 Build 0)  -->
<svg version="1.1" id="Layer_1" xmlns="http://www.w3.org/2000/svg" xmlns:xlink="http://www.w3.org/1999/xlink" x="0px" y="0px"
	 viewBox="0 0 24 24" style="enable-background:new 0 0 24 24;" xml:space="preserve">
<style type="text/css">
	.st0{fill:#0769AD;}
</style>
<title>jQuery icon</title>
<path class="st0" d="M1.5,5.9c-2.1,3-1.9,7-0.2,10.3c0,0.1,0.1,0.2,0.1,0.2c0,0.1,0,0.1,0.1,0.1c0,0,0,0.1,0,0.1
	c0,0.1,0.1,0.1,0.1,0.2L1.8,17c0,0,0.1,0.1,0.1,0.1C1.9,17.2,2,17.3,2,17.4c0,0,0,0.1,0.1,0.1c0.1,0.2,0.2,0.3,0.3,0.4
	c0.1,0.1,0.2,0.2,0.2,0.3c0,0,0.1,0.1,0.1,0.1L3,18.7c0,0,0.1,0.1,0.1,0.1c0.1,0.1,0.2,0.2,0.3,0.3c0,0,0,0,0,0
	c0.1,0.2,0.3,0.3,0.4,0.4C3.9,19.7,4,19.8,4,19.8l0.1,0.1c0.1,0.1,0.2,0.2,0.3,0.3c0,0,0,0,0,0l0.1,0c0.1,0.1,0.2,0.2,0.3,0.3
	L5,20.7c0.1,0.1,0.2,0.1,0.3,0.2L5.4,21c0.1,0.1,0.2,0.1,0.3,0.2c0,0,0.1,0,0.1,0.1l0,0l0.3,0.2l0.1,0.1c0.1,0.1,0.3,0.2,0.4,0.3
	c0,0,0.1,0,0.1,0.1C6.9,21.9,7,22,7.1,22.1c0.1,0,0.1,0.1,0.2,0.1c0.1,0,0.2,0.1,0.2,0.1c0,0,0,0,0.1,0c0,0,0.1,0,0.1,0
	c0.1,0.1,0.2,0.1,0.4,0.2c0,0,0.1,0,0.1,0c0.1,0.1,0.3,0.1,0.4,0.2c0,0,0.1,0,0.1,0c0.1,0.1,0.3,0.1,0.4,0.2l0.1,0
	C9.3,23,9.4,23,9.6,23.1c0,0,0.1,0,0.1,0c0.2,0,0.3,0.1,0.5,0.1c10.3,1.9,13.2-6.2,13.2-6.2c-2.5,3.3-7,4.1-11.2,3.2
	c-0.2,0-0.3-0.1-0.5-0.1c-0.2-0.1-0.4-0.1-0.6-0.2l-0.1,0c-0.1,0-0.3-0.1-0.4-0.1c0,0-0.1,0-0.1,0c-0.1-0.1-0.3-0.1-0.4-0.2
	c0,0-0.1,0-0.1,0c-0.1-0.1-0.2-0.1-0.4-0.2c0,0-0.1,0-0.1-0.1c-0.1,0-0.2-0.1-0.3-0.1c-0.1,0-0.1-0.1-0.2-0.1
	c-0.1-0.1-0.2-0.1-0.3-0.2c0,0-0.1,0-0.1-0.1c-0.1-0.1-0.3-0.2-0.4-0.3c0,0-0.1-0.1-0.1-0.1c-0.1-0.1-0.2-0.1-0.3-0.2
	c0,0-0.1,0-0.1-0.1C7.7,18.1,7.6,18,7.5,18c0,0-0.1-0.1-0.1-0.1c-0.1-0.1-0.2-0.1-0.3-0.2l-0.1-0.1c-0.1-0.1-0.2-0.2-0.3-0.3
	c0,0,0,0,0,0l-0.3-0.3l-0.1-0.1C6,16.8,6,16.7,5.9,16.6l-0.1-0.1c-0.1-0.1-0.2-0.2-0.3-0.3l0,0c-0.1-0.1-0.2-0.2-0.3-0.4
	c0,0-0.1-0.1-0.1-0.1l-0.2-0.3c-0.1-0.1-0.2-0.3-0.3-0.4C2.2,11.8,1.3,7.4,3.2,3.8 M8.1,3.3c-1.5,2.2-1.5,5.2-0.3,7.5
	c0.2,0.4,0.4,0.8,0.7,1.1c0.2,0.3,0.5,0.7,0.8,1c0.1,0.1,0.2,0.2,0.3,0.4l0.1,0.1c0.1,0.1,0.2,0.2,0.4,0.3l0,0
	c0.1,0.1,0.3,0.2,0.4,0.3c0,0,0.1,0.1,0.1,0.1c0.1,0.1,0.3,0.2,0.4,0.3l0,0c0.1,0,0.1,0.1,0.2,0.1c0,0,0.1,0,0.1,0.1
	c0.1,0.1,0.2,0.1,0.3,0.2c0,0,0,0,0,0c0.1,0.1,0.2,0.1,0.3,0.2c0,0,0.1,0,0.1,0.1c0.1,0,0.1,0.1,0.2,0.1l0,0
	c0.1,0.1,0.3,0.1,0.4,0.2c0,0,0.1,0,0.1,0c0.1,0,0.2,0.1,0.3,0.1c0.1,0,0.1,0,0.1,0.1c0.1,0,0.2,0.1,0.3,0.1l0.1,0
	c0.1,0,0.3,0.1,0.4,0.1c7.9,1.3,9.8-4.8,9.8-4.8c-1.7,2.4-4.8,3.5-8.3,2.6c-0.2,0-0.3-0.1-0.4-0.1c0,0-0.1,0-0.1,0
	c-0.1,0-0.2-0.1-0.3-0.1l-0.1-0.1c-0.1,0-0.2-0.1-0.3-0.1c0,0-0.1,0-0.1,0c-0.1-0.1-0.3-0.1-0.4-0.2l-0.2-0.1l-0.1-0.1
	c-0.1,0-0.2-0.1-0.3-0.1c0,0,0,0-0.1,0c-0.1-0.1-0.2-0.1-0.3-0.2c0,0-0.1,0-0.1-0.1l-0.2-0.1c-0.1-0.1-0.3-0.2-0.4-0.3
	c0,0-0.1-0.1-0.1-0.1c-1.5-1.2-2.7-2.8-3.2-4.6c-0.6-1.9-0.5-4,0.6-5.7 M13.7,1.4c-0.9,1.3-1,3-0.4,4.5c0.7,1.6,2,2.8,3.6,3.4
	c0.1,0,0.1,0,0.2,0.1l0.1,0c0.1,0,0.2,0.1,0.3,0.1c4.4,0.8,5.6-2.2,5.9-2.7c-1,1.5-2.8,1.9-4.9,1.3c-0.2,0-0.3-0.1-0.5-0.2
	c-0.2-0.1-0.4-0.2-0.6-0.3c-0.4-0.2-0.7-0.4-1.1-0.7c-1.9-1.5-3.1-4.2-1.9-6.5"/>
</svg>
