<?xml version="1.0" encoding="utf-8"?>
<!-- Generator: Adobe Illustrator 24.1.0, SVG Export Plug-In . SVG Version: 6.00 Build 0)  -->
<svg version="1.1" id="Layer_1" xmlns="http://www.w3.org/2000/svg" xmlns:xlink="http://www.w3.org/1999/xlink" x="0px" y="0px"
	 viewBox="0 0 24 24" style="enable-background:new 0 0 24 24;" xml:space="preserve">
<style type="text/css">
	.st0{fill:#4479A1;}
</style>
<path class="st0" d="M16.4,5.7c-0.1,0-0.2,0-0.3,0v0h0c0.1,0.1,0.1,0.2,0.2,0.3c0.1,0.1,0.1,0.2,0.2,0.3l0,0
	c0.1-0.1,0.1-0.2,0.1-0.3c0,0,0-0.1-0.1-0.1C16.5,5.8,16.5,5.7,16.4,5.7L16.4,5.7z M5.8,18.9H4.8c0-1.6-0.1-3-0.3-4.4h0l-1.4,4.4
	H2.5l-1.4-4.4h0c-0.1,1.3-0.2,2.8-0.2,4.4H0c0.1-2,0.2-3.8,0.4-5.5h1.1l1.3,4.1h0l1.3-4.1h1.1C5.6,15.4,5.7,17.2,5.8,18.9L5.8,18.9z
	 M9.8,14.8c-0.4,2-0.9,3.5-1.5,4.5c-0.5,0.7-1,1.1-1.6,1.1c-0.2,0-0.3,0-0.6-0.1v-0.5c0.1,0,0.2,0,0.4,0c0.3,0,0.5-0.1,0.6-0.2
	c0.2-0.2,0.3-0.4,0.3-0.6c0-0.2-0.1-0.5-0.2-0.9l-1-3.2h0.9l0.7,2.4c0.2,0.5,0.2,0.9,0.2,1.1c0.4-1.1,0.7-2.2,0.8-3.5
	C8.9,14.8,9.8,14.8,9.8,14.8z M22.1,18.9h-2.6v-5.5h0.9v4.9h1.7V18.9z M18.8,19l-1-0.5c0.1-0.1,0.2-0.2,0.3-0.2
	c0.4-0.5,0.6-1.3,0.6-2.3c0-1.8-0.7-2.7-2.2-2.7c-0.7,0-1.3,0.2-1.6,0.7c-0.4,0.5-0.6,1.3-0.6,2.2c0,1,0.2,1.7,0.6,2.1
	c0.4,0.4,0.9,0.6,1.6,0.6c0.3,0,0.5,0,0.7-0.1l1.3,0.8L18.8,19L18.8,19z M15.5,17.8c-0.2-0.4-0.3-0.9-0.3-1.7c0-1.4,0.4-2.1,1.3-2.1
	c0.4,0,0.8,0.2,1,0.5c0.2,0.4,0.3,0.9,0.3,1.7c0,1.4-0.4,2.1-1.3,2.1C16,18.3,15.7,18.1,15.5,17.8L15.5,17.8z M13.8,17.3
	c0,0.5-0.2,0.9-0.5,1.2s-0.8,0.5-1.4,0.5c-0.5,0-1.1-0.2-1.6-0.5l0.2-0.5c0.4,0.2,0.8,0.3,1.2,0.3c0.3,0,0.6-0.1,0.8-0.2
	c0.2-0.1,0.3-0.4,0.3-0.6c0-0.3-0.2-0.6-0.6-0.8c-0.4-0.2-1.2-0.7-1.2-0.7c-0.4-0.3-0.6-0.6-0.6-1.2c0-0.4,0.2-0.8,0.5-1.1
	c0.3-0.3,0.7-0.4,1.2-0.4c0.5,0,1,0.1,1.4,0.4l-0.2,0.5c-0.4-0.2-0.7-0.2-1.1-0.2c-0.3,0-0.5,0.1-0.7,0.2c-0.2,0.1-0.2,0.3-0.2,0.5
	c0,0.3,0.2,0.6,0.7,0.9c0.4,0.2,1.2,0.7,1.2,0.7C13.6,16.5,13.8,16.8,13.8,17.3L13.8,17.3z M23.2,11.5c-0.5,0-1,0-1.3,0.2
	c-0.1,0-0.3,0-0.3,0.2c0.1,0.1,0.1,0.1,0.1,0.2c0.1,0.1,0.2,0.3,0.3,0.4c0.1,0.1,0.3,0.2,0.4,0.3c0.3,0.2,0.6,0.3,0.8,0.4
	c0.1,0.1,0.3,0.2,0.4,0.3c0.1,0.1,0.1,0.1,0.2,0.2v0c0-0.1-0.1-0.1-0.1-0.2c-0.1-0.1-0.1-0.1-0.2-0.2c-0.2-0.3-0.4-0.5-0.7-0.7
	c-0.2-0.1-0.7-0.4-0.8-0.6l0,0c0.1,0,0.3-0.1,0.5-0.1c0.2-0.1,0.4,0,0.7-0.1c0.1,0,0.2-0.1,0.3-0.1v-0.1c-0.1-0.1-0.2-0.3-0.3-0.4
	c-0.3-0.3-0.7-0.6-1.1-0.8c-0.2-0.1-0.5-0.2-0.7-0.3c-0.1,0-0.2-0.1-0.3-0.1c-0.1-0.1-0.2-0.3-0.3-0.5c-0.2-0.4-0.4-0.8-0.5-1.2
	c-0.1-0.3-0.2-0.5-0.3-0.8c-0.7-1.1-1.4-1.8-2.6-2.5c-0.2-0.1-0.5-0.2-0.9-0.3c-0.2,0-0.3,0-0.5,0c-0.1,0-0.2-0.2-0.3-0.2
	c-0.4-0.2-1.4-0.8-1.6-0.1c-0.2,0.4,0.3,0.9,0.4,1.1C14.8,5.6,14.9,5.8,15,6c0,0.1,0.1,0.2,0.1,0.4c0.1,0.3,0.2,0.6,0.3,0.9
	c0.1,0.1,0.2,0.3,0.2,0.4c0.1,0.1,0.1,0.1,0.2,0.2c-0.1,0.1-0.1,0.3-0.2,0.5c-0.2,0.8-0.1,1.7,0.2,2.2c0.1,0.2,0.4,0.5,0.7,0.4
	c0.3-0.1,0.2-0.5,0.3-0.8c0-0.1,0-0.1,0-0.2v0c0.1,0.2,0.2,0.4,0.3,0.6c0.2,0.3,0.6,0.7,0.9,0.9c0.2,0.1,0.3,0.3,0.5,0.4v0h0
	c0-0.1-0.1-0.1-0.2-0.1c-0.1-0.1-0.3-0.3-0.4-0.4c-0.3-0.4-0.5-0.8-0.7-1.2c-0.1-0.2-0.2-0.4-0.3-0.6c0-0.1,0-0.2-0.1-0.2
	c-0.1,0.1-0.2,0.3-0.3,0.5c-0.1,0.3-0.1,0.6-0.2,1c0,0,0,0,0,0c-0.2-0.1-0.3-0.3-0.4-0.5C15.8,9.7,15.8,9,16,8.4
	c0-0.1,0.2-0.6,0.2-0.7c0-0.1-0.2-0.2-0.2-0.3c-0.1-0.1-0.2-0.3-0.2-0.4c-0.2-0.4-0.2-0.8-0.4-1.2c-0.1-0.2-0.2-0.4-0.3-0.5
	c-0.1-0.2-0.3-0.3-0.4-0.5c0-0.1-0.1-0.2,0-0.3c0-0.1,0-0.1,0.1-0.1c0.1-0.1,0.3,0,0.4,0.1c0.2,0.1,0.5,0.2,0.7,0.3
	C15.8,4.9,15.9,5,16,5h0.1c0.2,0,0.5,0,0.7,0.1c0.4,0.1,0.7,0.3,1,0.5c0.9,0.6,1.6,1.3,2.1,2.3C19.9,8,19.9,8.1,20,8.3
	c0.1,0.3,0.3,0.7,0.5,1c0.1,0.3,0.3,0.6,0.5,0.9c0.1,0.1,0.5,0.2,0.7,0.3c0.1,0.1,0.3,0.1,0.5,0.2c0.2,0.1,0.5,0.3,0.7,0.5
	C22.9,11.2,23.2,11.4,23.2,11.5z"/>
</svg>
